<svg width="39" height="42" viewBox="0 0 39 42" fill="none" xmlns="http://www.w3.org/2000/svg">
<g clip-path="url(#clip0_1_164)">
<path d="M19.4724 2.28125V40.0938" stroke="#6366F1" stroke-width="2" stroke-linecap="round" stroke-linejoin="round"/>
<path d="M27.3453 9.15625H15.5359C14.0743 9.15625 12.6725 9.79004 11.639 10.9182C10.6054 12.0463 10.0248 13.5764 10.0248 15.1719C10.0248 16.7673 10.6054 18.2974 11.639 19.4256C12.6725 20.5537 14.0743 21.1875 15.5359 21.1875H23.4089C24.8705 21.1875 26.2723 21.8213 27.3058 22.9494C28.3393 24.0776 28.9199 25.6077 28.9199 27.2031C28.9199 28.7986 28.3393 30.3287 27.3058 31.4568C26.2723 32.585 24.8705 33.2188 23.4089 33.2188H10.0248" stroke="#6366F1" stroke-width="2" stroke-linecap="round" stroke-linejoin="round"/>
</g>
<defs>
<clipPath id="clip0_1_164">
<rect width="37.7902" height="41.25" fill="white" transform="translate(0.577259 0.5625)"/>
</clipPath>
</defs>
</svg>
